<mxfile host="app.diagrams.net" modified="2024-09-16T08:02:57.838Z" agent="Mozilla/5.0 (Windows NT 10.0; Win64; x64) AppleWebKit/537.36 (KHTML, like Gecko) Chrome/128.0.0.0 Safari/537.36" version="24.4.9" etag="Y75raY6yFgt3l1oR0364" type="github">
  <diagram name="Page-1" id="M-pqJo4O86yEx_NjYUDs">
    <mxGraphModel>
      <root>
        <mxCell id="0" />
        <mxCell id="1" parent="0" />
      </root>
    </mxGraphModel>
  </diagram>
</mxfile>
